<svg xmlns="http://www.w3.org/2000/svg" viewBox="0 0 800 450"><defs><linearGradient id="a" x1="0" y1="0" x2="1" y2="1"><stop stop-color="#eaf2f8"/><stop offset="1" stop-color="#c9d9e8"/></linearGradient></defs><rect width="800" height="450" fill="url(#a)"/><circle cx="690" cy="72" r="42" fill="#f6c453"/><rect y="315" width="800" height="135" fill="#233244"/><path d="M0 370h800" stroke="#fff" stroke-width="6" stroke-dasharray="48 38" opacity=".7"/><path d="M80 300Q160 190 270 170h260q85 12 145 130z" fill="#d51f2a"/><path d="M205 205h112l35 76H160zM345 205h145l52 76H380z" fill="#9ec1d8"/><circle cx="230" cy="320" r="48" fill="#172231"/><circle cx="230" cy="320" r="23" fill="#dce4eb"/><circle cx="585" cy="320" r="48" fill="#172231"/><circle cx="585" cy="320" r="23" fill="#dce4eb"/><rect x="85" y="266" width="54" height="22" rx="11" fill="#fff"/><rect x="620" y="266" width="54" height="22" rx="11" fill="#fff"/><circle cx="128" cy="105" r="42" fill="#fff" opacity=".75"/><path d="M128 80v50M103 105h50" stroke="#d51f2a" stroke-width="10" stroke-linecap="round"/></svg>